<svg width="67" height="67" viewBox="0 0 67 67" fill="none" xmlns="http://www.w3.org/2000/svg">
<g filter="url(#filter0_d_79034_803)">
<path d="M43.8768 6.89671C43.9576 6.63386 43.9859 6.35765 43.96 6.08387C43.9341 5.81009 43.8545 5.54409 43.7258 5.30106C43.5971 5.05803 43.4217 4.84273 43.2098 4.66746C42.9979 4.49218 42.7536 4.36036 42.4907 4.27953C42.2278 4.19869 41.9516 4.17042 41.6779 4.19633C41.4041 4.22223 41.1381 4.30181 40.895 4.43052C40.652 4.55923 40.4367 4.73454 40.2614 4.94646C40.0862 5.15837 39.9544 5.40273 39.8735 5.66559L23.1235 60.1031C22.9603 60.634 23.0146 61.2079 23.2745 61.6987C23.5344 62.1896 23.9787 62.557 24.5096 62.7203C25.0404 62.8835 25.6144 62.8292 26.1052 62.5693C26.5961 62.3093 26.9635 61.8651 27.1268 61.3342L43.8768 6.89671ZM20.3263 17.3613C20.5212 17.5558 20.6759 17.7868 20.7815 18.0412C20.8871 18.2956 20.9414 18.5683 20.9414 18.8437C20.9414 19.1191 20.8871 19.3917 20.7815 19.6461C20.6759 19.9005 20.5212 20.1315 20.3263 20.326L7.1482 33.4999L20.3263 46.6738C20.7194 47.0669 20.9403 47.6002 20.9403 48.1562C20.9403 48.7122 20.7194 49.2454 20.3263 49.6385C19.9331 50.0317 19.3999 50.2525 18.8439 50.2525C18.2879 50.2525 17.7547 50.0317 17.3615 49.6385L2.70527 34.9823C2.51028 34.7878 2.35558 34.5567 2.25003 34.3024C2.14448 34.048 2.09015 33.7753 2.09015 33.4999C2.09015 33.2245 2.14448 32.9518 2.25003 32.6974C2.35558 32.4431 2.51028 32.212 2.70527 32.0175L17.3615 17.3613C17.556 17.1663 17.7871 17.0116 18.0414 16.906C18.2958 16.8005 18.5685 16.7462 18.8439 16.7462C19.1193 16.7462 19.392 16.8005 19.6464 16.906C19.9007 17.0116 20.1318 17.1663 20.3263 17.3613ZM46.674 17.3613C46.479 17.5558 46.3243 17.7868 46.2188 18.0412C46.1132 18.2956 46.0589 18.5683 46.0589 18.8437C46.0589 19.1191 46.1132 19.3917 46.2188 19.6461C46.3243 19.9005 46.479 20.1315 46.674 20.326L59.8521 33.4999L46.674 46.6738C46.4793 46.8684 46.3249 47.0996 46.2196 47.3539C46.1142 47.6082 46.06 47.8809 46.06 48.1562C46.06 48.4315 46.1142 48.7041 46.2196 48.9584C46.3249 49.2128 46.4793 49.4439 46.674 49.6385C46.8687 49.8332 47.0998 49.9876 47.3541 50.093C47.6085 50.1983 47.8811 50.2525 48.1564 50.2525C48.4317 50.2525 48.7043 50.1983 48.9586 50.093C49.213 49.9876 49.4441 49.8332 49.6388 49.6385L64.295 34.9823C64.49 34.7878 64.6447 34.5567 64.7502 34.3024C64.8558 34.048 64.9101 33.7753 64.9101 33.4999C64.9101 33.2245 64.8558 32.9518 64.7502 32.6974C64.6447 32.4431 64.49 32.212 64.295 32.0175L49.6388 17.3613C49.4443 17.1663 49.2132 17.0116 48.9589 16.906C48.7045 16.8005 48.4318 16.7462 48.1564 16.7462C47.881 16.7462 47.6083 16.8005 47.3539 16.906C47.0996 17.0116 46.8685 17.1663 46.674 17.3613Z" fill="#34547A" fill-opacity="0.6"/>
</g>
<defs>
<filter id="filter0_d_79034_803" x="2.09015" y="4.18701" width="62.82" height="62.6258" filterUnits="userSpaceOnUse" color-interpolation-filters="sRGB">
<feFlood flood-opacity="0" result="BackgroundImageFix"/>
<feColorMatrix in="SourceAlpha" type="matrix" values="0 0 0 0 0 0 0 0 0 0 0 0 0 0 0 0 0 0 127 0" result="hardAlpha"/>
<feOffset dy="4"/>
<feComposite in2="hardAlpha" operator="out"/>
<feColorMatrix type="matrix" values="0 0 0 0 0.203922 0 0 0 0 0.329412 0 0 0 0 0.478431 0 0 0 0.5 0"/>
<feBlend mode="normal" in2="BackgroundImageFix" result="effect1_dropShadow_79034_803"/>
<feBlend mode="normal" in="SourceGraphic" in2="effect1_dropShadow_79034_803" result="shape"/>
</filter>
</defs>
</svg>
