<svg width="68" height="68" viewBox="0 0 68 68" fill="none" xmlns="http://www.w3.org/2000/svg">
<g filter="url(#filter0_d_79023:36)">
<path d="M53.125 44.625C54.2986 44.625 55.25 43.6736 55.25 42.5C55.25 41.3264 54.2986 40.375 53.125 40.375C51.9514 40.375 51 41.3264 51 42.5C51 43.6736 51.9514 44.625 53.125 44.625Z" fill="#34547A"/>
</g>
<g filter="url(#filter1_d_79023:36)">
<path d="M41.2547 63.75H31.875V54.3702L42.5722 43.673C42.5247 43.2838 42.5006 42.8921 42.5 42.5C42.4985 40.3482 43.1504 38.2466 44.3695 36.4734C45.5885 34.7002 47.3172 33.3389 49.3269 32.5697C51.3365 31.8005 53.5323 31.6596 55.6238 32.1657C57.7152 32.6718 59.6038 33.8009 61.0394 35.4038C62.4751 37.0067 63.3903 39.0077 63.6638 41.142C63.9373 43.2764 63.5564 45.4435 62.5713 47.3566C61.5863 49.2697 60.0435 50.8386 58.1473 51.8558C56.251 52.8729 54.0907 53.2903 51.952 53.0527L41.2547 63.75ZM36.125 59.5H39.4953L50.558 48.4372L51.7055 48.7007C53.0715 49.0258 54.5063 48.8961 55.7919 48.3315C57.0776 47.7668 58.1438 46.798 58.8287 45.5722C59.5135 44.3464 59.7796 42.9305 59.5866 41.5397C59.3935 40.1488 58.7517 38.859 57.7588 37.8661C56.7659 36.8732 55.4761 36.2315 54.0853 36.0384C52.6945 35.8453 51.2786 36.1114 50.0528 36.7963C48.827 37.4812 47.8582 38.5474 47.2935 39.833C46.7289 41.1187 46.5992 42.5535 46.9242 43.9195L47.1877 45.067L36.125 56.1297V59.5Z" fill="#34547A"/>
</g>
<g filter="url(#filter2_d_79023:36)">
<path d="M12.75 17H17V34H12.75V17Z" fill="#34547A"/>
</g>
<g filter="url(#filter3_d_79023:36)">
<path d="M4.25 17H8.5V34H4.25V17Z" fill="#34547A"/>
</g>
<g filter="url(#filter4_d_79023:36)">
<path d="M38.25 17H42.5V29.75H38.25V17Z" fill="#34547A"/>
</g>
<g filter="url(#filter5_d_79023:36)">
<path d="M29.75 34H25.5C24.3728 34 23.2918 33.5522 22.4948 32.7552C21.6978 31.9582 21.25 30.8772 21.25 29.75V21.25C21.25 20.1228 21.6978 19.0418 22.4948 18.2448C23.2918 17.4478 24.3728 17 25.5 17H29.75C30.8772 17 31.9582 17.4478 32.7552 18.2448C33.5522 19.0418 34 20.1228 34 21.25V29.75C34 30.8772 33.5522 31.9582 32.7552 32.7552C31.9582 33.5522 30.8772 34 29.75 34ZM25.5 29.75H29.75V21.25H25.5V29.75Z" fill="#34547A"/>
</g>
<g filter="url(#filter6_d_79023:36)">
<path d="M4.25 38.25H8.5V55.25H4.25V38.25Z" fill="#34547A"/>
</g>
<g filter="url(#filter7_d_79023:36)">
<path d="M29.75 38.25H34V46.75H29.75V38.25Z" fill="#34547A"/>
</g>
<g filter="url(#filter8_d_79023:36)">
<path d="M21.25 55.25H17C15.8728 55.25 14.7918 54.8022 13.9948 54.0052C13.1978 53.2082 12.75 52.1272 12.75 51V42.5C12.75 41.3728 13.1978 40.2918 13.9948 39.4948C14.7918 38.6978 15.8728 38.25 17 38.25H21.25C22.3772 38.25 23.4582 38.6978 24.2552 39.4948C25.0522 40.2918 25.5 41.3728 25.5 42.5V51C25.5 52.1272 25.0522 53.2082 24.2552 54.0052C23.4582 54.8022 22.3772 55.25 21.25 55.25ZM17 51H21.25V42.5H17V51Z" fill="#34547A"/>
</g>
<g filter="url(#filter9_d_79023:36)">
<path d="M4.25 4.25H8.5V12.75H4.25V4.25Z" fill="#34547A"/>
</g>
<g filter="url(#filter10_d_79023:36)">
<path d="M29.75 4.25H34V12.75H29.75V4.25Z" fill="#34547A"/>
</g>
<g filter="url(#filter11_d_79023:36)">
<path d="M38.25 4.25H42.5V12.75H38.25V4.25Z" fill="#34547A"/>
</g>
<g filter="url(#filter12_d_79023:36)">
<path d="M21.25 12.75H17C15.8728 12.75 14.7918 12.3022 13.9948 11.5052C13.1978 10.7082 12.75 9.62717 12.75 8.5V4.25H17V8.5H21.25V4.25H25.5V8.5C25.5 9.62717 25.0522 10.7082 24.2552 11.5052C23.4582 12.3022 22.3772 12.75 21.25 12.75Z" fill="#34547A"/>
</g>
<defs>
<filter id="filter0_d_79023:36" x="49" y="40.375" width="6.25" height="6.25" filterUnits="userSpaceOnUse" color-interpolation-filters="sRGB">
<feFlood flood-opacity="0" result="BackgroundImageFix"/>
<feColorMatrix in="SourceAlpha" type="matrix" values="0 0 0 0 0 0 0 0 0 0 0 0 0 0 0 0 0 0 127 0" result="hardAlpha"/>
<feOffset dx="-2" dy="2"/>
<feComposite in2="hardAlpha" operator="out"/>
<feColorMatrix type="matrix" values="0 0 0 0 0.203922 0 0 0 0 0.329412 0 0 0 0 0.478431 0 0 0 0.2 0"/>
<feBlend mode="normal" in2="BackgroundImageFix" result="effect1_dropShadow_79023:36"/>
<feBlend mode="normal" in="SourceGraphic" in2="effect1_dropShadow_79023:36" result="shape"/>
</filter>
<filter id="filter1_d_79023:36" x="29.875" y="31.8677" width="33.875" height="33.8823" filterUnits="userSpaceOnUse" color-interpolation-filters="sRGB">
<feFlood flood-opacity="0" result="BackgroundImageFix"/>
<feColorMatrix in="SourceAlpha" type="matrix" values="0 0 0 0 0 0 0 0 0 0 0 0 0 0 0 0 0 0 127 0" result="hardAlpha"/>
<feOffset dx="-2" dy="2"/>
<feComposite in2="hardAlpha" operator="out"/>
<feColorMatrix type="matrix" values="0 0 0 0 0.203922 0 0 0 0 0.329412 0 0 0 0 0.478431 0 0 0 0.2 0"/>
<feBlend mode="normal" in2="BackgroundImageFix" result="effect1_dropShadow_79023:36"/>
<feBlend mode="normal" in="SourceGraphic" in2="effect1_dropShadow_79023:36" result="shape"/>
</filter>
<filter id="filter2_d_79023:36" x="10.75" y="17" width="6.25" height="19" filterUnits="userSpaceOnUse" color-interpolation-filters="sRGB">
<feFlood flood-opacity="0" result="BackgroundImageFix"/>
<feColorMatrix in="SourceAlpha" type="matrix" values="0 0 0 0 0 0 0 0 0 0 0 0 0 0 0 0 0 0 127 0" result="hardAlpha"/>
<feOffset dx="-2" dy="2"/>
<feComposite in2="hardAlpha" operator="out"/>
<feColorMatrix type="matrix" values="0 0 0 0 0.203922 0 0 0 0 0.329412 0 0 0 0 0.478431 0 0 0 0.2 0"/>
<feBlend mode="normal" in2="BackgroundImageFix" result="effect1_dropShadow_79023:36"/>
<feBlend mode="normal" in="SourceGraphic" in2="effect1_dropShadow_79023:36" result="shape"/>
</filter>
<filter id="filter3_d_79023:36" x="2.25" y="17" width="6.25" height="19" filterUnits="userSpaceOnUse" color-interpolation-filters="sRGB">
<feFlood flood-opacity="0" result="BackgroundImageFix"/>
<feColorMatrix in="SourceAlpha" type="matrix" values="0 0 0 0 0 0 0 0 0 0 0 0 0 0 0 0 0 0 127 0" result="hardAlpha"/>
<feOffset dx="-2" dy="2"/>
<feComposite in2="hardAlpha" operator="out"/>
<feColorMatrix type="matrix" values="0 0 0 0 0.203922 0 0 0 0 0.329412 0 0 0 0 0.478431 0 0 0 0.2 0"/>
<feBlend mode="normal" in2="BackgroundImageFix" result="effect1_dropShadow_79023:36"/>
<feBlend mode="normal" in="SourceGraphic" in2="effect1_dropShadow_79023:36" result="shape"/>
</filter>
<filter id="filter4_d_79023:36" x="36.25" y="17" width="6.25" height="14.75" filterUnits="userSpaceOnUse" color-interpolation-filters="sRGB">
<feFlood flood-opacity="0" result="BackgroundImageFix"/>
<feColorMatrix in="SourceAlpha" type="matrix" values="0 0 0 0 0 0 0 0 0 0 0 0 0 0 0 0 0 0 127 0" result="hardAlpha"/>
<feOffset dx="-2" dy="2"/>
<feComposite in2="hardAlpha" operator="out"/>
<feColorMatrix type="matrix" values="0 0 0 0 0.203922 0 0 0 0 0.329412 0 0 0 0 0.478431 0 0 0 0.2 0"/>
<feBlend mode="normal" in2="BackgroundImageFix" result="effect1_dropShadow_79023:36"/>
<feBlend mode="normal" in="SourceGraphic" in2="effect1_dropShadow_79023:36" result="shape"/>
</filter>
<filter id="filter5_d_79023:36" x="19.25" y="17" width="14.75" height="19" filterUnits="userSpaceOnUse" color-interpolation-filters="sRGB">
<feFlood flood-opacity="0" result="BackgroundImageFix"/>
<feColorMatrix in="SourceAlpha" type="matrix" values="0 0 0 0 0 0 0 0 0 0 0 0 0 0 0 0 0 0 127 0" result="hardAlpha"/>
<feOffset dx="-2" dy="2"/>
<feComposite in2="hardAlpha" operator="out"/>
<feColorMatrix type="matrix" values="0 0 0 0 0.203922 0 0 0 0 0.329412 0 0 0 0 0.478431 0 0 0 0.2 0"/>
<feBlend mode="normal" in2="BackgroundImageFix" result="effect1_dropShadow_79023:36"/>
<feBlend mode="normal" in="SourceGraphic" in2="effect1_dropShadow_79023:36" result="shape"/>
</filter>
<filter id="filter6_d_79023:36" x="2.25" y="38.25" width="6.25" height="19" filterUnits="userSpaceOnUse" color-interpolation-filters="sRGB">
<feFlood flood-opacity="0" result="BackgroundImageFix"/>
<feColorMatrix in="SourceAlpha" type="matrix" values="0 0 0 0 0 0 0 0 0 0 0 0 0 0 0 0 0 0 127 0" result="hardAlpha"/>
<feOffset dx="-2" dy="2"/>
<feComposite in2="hardAlpha" operator="out"/>
<feColorMatrix type="matrix" values="0 0 0 0 0.203922 0 0 0 0 0.329412 0 0 0 0 0.478431 0 0 0 0.2 0"/>
<feBlend mode="normal" in2="BackgroundImageFix" result="effect1_dropShadow_79023:36"/>
<feBlend mode="normal" in="SourceGraphic" in2="effect1_dropShadow_79023:36" result="shape"/>
</filter>
<filter id="filter7_d_79023:36" x="27.75" y="38.25" width="6.25" height="10.5" filterUnits="userSpaceOnUse" color-interpolation-filters="sRGB">
<feFlood flood-opacity="0" result="BackgroundImageFix"/>
<feColorMatrix in="SourceAlpha" type="matrix" values="0 0 0 0 0 0 0 0 0 0 0 0 0 0 0 0 0 0 127 0" result="hardAlpha"/>
<feOffset dx="-2" dy="2"/>
<feComposite in2="hardAlpha" operator="out"/>
<feColorMatrix type="matrix" values="0 0 0 0 0.203922 0 0 0 0 0.329412 0 0 0 0 0.478431 0 0 0 0.2 0"/>
<feBlend mode="normal" in2="BackgroundImageFix" result="effect1_dropShadow_79023:36"/>
<feBlend mode="normal" in="SourceGraphic" in2="effect1_dropShadow_79023:36" result="shape"/>
</filter>
<filter id="filter8_d_79023:36" x="10.75" y="38.25" width="14.75" height="19" filterUnits="userSpaceOnUse" color-interpolation-filters="sRGB">
<feFlood flood-opacity="0" result="BackgroundImageFix"/>
<feColorMatrix in="SourceAlpha" type="matrix" values="0 0 0 0 0 0 0 0 0 0 0 0 0 0 0 0 0 0 127 0" result="hardAlpha"/>
<feOffset dx="-2" dy="2"/>
<feComposite in2="hardAlpha" operator="out"/>
<feColorMatrix type="matrix" values="0 0 0 0 0.203922 0 0 0 0 0.329412 0 0 0 0 0.478431 0 0 0 0.2 0"/>
<feBlend mode="normal" in2="BackgroundImageFix" result="effect1_dropShadow_79023:36"/>
<feBlend mode="normal" in="SourceGraphic" in2="effect1_dropShadow_79023:36" result="shape"/>
</filter>
<filter id="filter9_d_79023:36" x="2.25" y="4.25" width="6.25" height="10.5" filterUnits="userSpaceOnUse" color-interpolation-filters="sRGB">
<feFlood flood-opacity="0" result="BackgroundImageFix"/>
<feColorMatrix in="SourceAlpha" type="matrix" values="0 0 0 0 0 0 0 0 0 0 0 0 0 0 0 0 0 0 127 0" result="hardAlpha"/>
<feOffset dx="-2" dy="2"/>
<feComposite in2="hardAlpha" operator="out"/>
<feColorMatrix type="matrix" values="0 0 0 0 0.203922 0 0 0 0 0.329412 0 0 0 0 0.478431 0 0 0 0.2 0"/>
<feBlend mode="normal" in2="BackgroundImageFix" result="effect1_dropShadow_79023:36"/>
<feBlend mode="normal" in="SourceGraphic" in2="effect1_dropShadow_79023:36" result="shape"/>
</filter>
<filter id="filter10_d_79023:36" x="27.75" y="4.25" width="6.25" height="10.5" filterUnits="userSpaceOnUse" color-interpolation-filters="sRGB">
<feFlood flood-opacity="0" result="BackgroundImageFix"/>
<feColorMatrix in="SourceAlpha" type="matrix" values="0 0 0 0 0 0 0 0 0 0 0 0 0 0 0 0 0 0 127 0" result="hardAlpha"/>
<feOffset dx="-2" dy="2"/>
<feComposite in2="hardAlpha" operator="out"/>
<feColorMatrix type="matrix" values="0 0 0 0 0.203922 0 0 0 0 0.329412 0 0 0 0 0.478431 0 0 0 0.2 0"/>
<feBlend mode="normal" in2="BackgroundImageFix" result="effect1_dropShadow_79023:36"/>
<feBlend mode="normal" in="SourceGraphic" in2="effect1_dropShadow_79023:36" result="shape"/>
</filter>
<filter id="filter11_d_79023:36" x="36.25" y="4.25" width="6.25" height="10.5" filterUnits="userSpaceOnUse" color-interpolation-filters="sRGB">
<feFlood flood-opacity="0" result="BackgroundImageFix"/>
<feColorMatrix in="SourceAlpha" type="matrix" values="0 0 0 0 0 0 0 0 0 0 0 0 0 0 0 0 0 0 127 0" result="hardAlpha"/>
<feOffset dx="-2" dy="2"/>
<feComposite in2="hardAlpha" operator="out"/>
<feColorMatrix type="matrix" values="0 0 0 0 0.203922 0 0 0 0 0.329412 0 0 0 0 0.478431 0 0 0 0.2 0"/>
<feBlend mode="normal" in2="BackgroundImageFix" result="effect1_dropShadow_79023:36"/>
<feBlend mode="normal" in="SourceGraphic" in2="effect1_dropShadow_79023:36" result="shape"/>
</filter>
<filter id="filter12_d_79023:36" x="10.75" y="4.25" width="14.75" height="10.5" filterUnits="userSpaceOnUse" color-interpolation-filters="sRGB">
<feFlood flood-opacity="0" result="BackgroundImageFix"/>
<feColorMatrix in="SourceAlpha" type="matrix" values="0 0 0 0 0 0 0 0 0 0 0 0 0 0 0 0 0 0 127 0" result="hardAlpha"/>
<feOffset dx="-2" dy="2"/>
<feComposite in2="hardAlpha" operator="out"/>
<feColorMatrix type="matrix" values="0 0 0 0 0.203922 0 0 0 0 0.329412 0 0 0 0 0.478431 0 0 0 0.2 0"/>
<feBlend mode="normal" in2="BackgroundImageFix" result="effect1_dropShadow_79023:36"/>
<feBlend mode="normal" in="SourceGraphic" in2="effect1_dropShadow_79023:36" result="shape"/>
</filter>
</defs>
</svg>
