<svg width="100" height="59" viewBox="0 0 100 59" fill="none" xmlns="http://www.w3.org/2000/svg">
<path d="M86.2534 15.6092C66.1706 -4.72486 33.4966 -4.72486 13.4139 15.6092L0 29.1891L13.7466 43.1077C23.7872 53.2739 36.9764 58.3586 50.1672 58.3586C63.3581 58.3586 76.5456 53.2756 86.5878 43.1077L100.002 29.526L86.2534 15.6092ZM84.1976 40.6893C65.4324 59.6876 34.9003 59.6876 16.1351 40.6893L4.77703 29.1891L15.8024 18.0258C34.5676 -0.972415 65.0997 -0.972415 83.8649 18.0258L95.223 29.526L84.1976 40.6893Z" fill="white"/>
<path d="M48.2635 15.6248C41.7433 15.6248 36.4392 20.9952 36.4392 27.597C36.4392 28.5411 37.196 29.3073 38.1284 29.3073C39.0608 29.3073 39.8176 28.5411 39.8176 27.597C39.8176 22.8817 43.6064 19.0454 48.2635 19.0454C49.196 19.0454 49.9527 18.2792 49.9527 17.3351C49.9527 16.391 49.1977 15.6248 48.2635 15.6248Z" fill="white"/>
<path d="M49.9526 7.073C37.8445 7.073 27.9932 17.0476 27.9932 29.3072C27.9932 41.5668 37.8445 51.5414 49.9526 51.5414C62.0607 51.5414 71.9121 41.5668 71.9121 29.3072C71.9121 17.0476 62.0624 7.073 49.9526 7.073ZM49.9526 48.1207C39.7077 48.1207 31.3715 39.6803 31.3715 29.3072C31.3715 18.9341 39.7077 10.4936 49.9526 10.4936C60.1976 10.4936 68.5337 18.9341 68.5337 29.3072C68.5337 39.6803 60.1992 48.1207 49.9526 48.1207Z" fill="white"/>
</svg>
