<svg width="63" height="58" viewBox="0 0 63 58" fill="none" xmlns="http://www.w3.org/2000/svg">
<g filter="url(#filter0_d_79034_806)">
<path d="M17.5227 44.3896L10.2119 48.6797L5.86122 44.3094L9.81386 36.8917C9.04676 35.538 8.44475 34.0964 8.02082 32.5981L0 30.4095V24.2183L7.97787 21.8645C8.3875 20.3705 8.97332 18.9184 9.73744 17.5448L5.67997 10.2578L10.0307 5.88763L17.3431 10.0137C18.738 9.24242 20.1686 8.66433 21.6117 8.2656L23.8683 0H30.0317L32.3535 8.43901C33.7083 8.85607 35.0151 9.4171 36.2515 10.1126L43.9296 5.70556L48.2802 10.0759L43.9151 17.8619C45.0351 19.9297 45.7977 22.245 46.0976 24.749H38.3977C36.8478 17.0389 27.9846 12.6606 20.7983 16.8223C12.8946 21.3994 12.8946 32.9043 20.7983 37.4814C23.9972 39.3339 26.1749 39.6327 28.9965 38.4214V44.3518L23.4735 47.6619C23.4735 47.6619 18.9724 45.1724 17.5225 44.3897L17.5227 44.3896ZM33.917 50.6949C31.9368 51.3673 30.4043 50.9637 28.8113 48.0774L24.2885 50.8606C26.1216 55.4654 32.6238 57.4614 37.3777 54.8192C40.5683 52.698 41.0584 50.5179 40.9888 43.7403V28.3411H35.4037V45.9949C35.4671 48.0864 35.3815 50.1976 33.917 50.6949ZM59.383 54.5933C62.0452 53.0861 63.5776 50.1666 62.7958 46.409C61.5364 39.3272 52.0238 39.3272 50.8958 36.433C49.6571 32.2549 55.3829 31.5944 56.9712 35.3144L61.3249 32.5082C58.209 26.492 49.7376 27.0875 46.9087 30.7463C44.0944 33.9552 44.8964 39.5712 48.3226 41.8828C51.6978 44.4275 56.6557 45.0059 57.2886 47.3863C57.9043 50.2993 55.1564 51.2404 52.4255 50.9065C50.4131 50.4865 49.2937 49.4595 48.0832 47.5906L43.5661 50.2078C46.6122 56.3148 54.7971 57.1895 59.383 54.5931V54.5933Z" fill="#34547A" fill-opacity="0.6" shape-rendering="crispEdges"/>
</g>
<defs>
<filter id="filter0_d_79034_806" x="0" y="0" width="63" height="58" filterUnits="userSpaceOnUse" color-interpolation-filters="sRGB">
<feFlood flood-opacity="0" result="BackgroundImageFix"/>
<feColorMatrix in="SourceAlpha" type="matrix" values="0 0 0 0 0 0 0 0 0 0 0 0 0 0 0 0 0 0 127 0" result="hardAlpha"/>
<feOffset dy="2"/>
<feComposite in2="hardAlpha" operator="out"/>
<feColorMatrix type="matrix" values="0 0 0 0 0.203922 0 0 0 0 0.329412 0 0 0 0 0.478431 0 0 0 0.2 0"/>
<feBlend mode="normal" in2="BackgroundImageFix" result="effect1_dropShadow_79034_806"/>
<feBlend mode="normal" in="SourceGraphic" in2="effect1_dropShadow_79034_806" result="shape"/>
</filter>
</defs>
</svg>
